# xmcd
#
# Track frame offsets: 
#        150
#        10762
#        29717
#        43042
#        53997
#        69632
#        85692
#        101742
#        119975
#        138837
#        149205
#        168440
#
# Disc length: 2394 seconds
#
# Revision: 18
# Processed by: cddbd v1.5.2PL0 Copyright (c) Steve Scherf et al.
# Submitted via: ExactAudioCopy v1.1
#
DISCID=b509580c
DTITLE=Sally Jones - Love Hurts
DYEAR=2001
DGENRE=Country
TTITLE0=Love Hurts
TTITLE1=Saro
TTITLE2=Heart Of Virginia
TTITLE3=I'll Keep This Love
TTITLE4=Go Way From My Window
TTITLE5=He Came Down To Me
TTITLE6=Little White Lies
TTITLE7=Calico Plains
TTITLE8=Sipsey
TTITLE9=Blue Tonight
TTITLE10=Hello Willow
TTITLE11=Lost and Found
EXTD=
EXTT0=
EXTT1=
EXTT2=
EXTT3=
EXTT4=
EXTT5=
EXTT6=
EXTT7=
EXTT8=
EXTT9=
EXTT10=
EXTT11=
PLAYORDER=
